HIERARCHY
ROOT Hips
{
	OFFSET 0.000000 0.000000 0.000000
	CHANNELS 6 Xposition Yposition Zposition Zrotation Yrotation Xrotation 
	JOINT Hips_Spine
	{
		OFFSET 0.000000 0.000000 0.000000
		CHANNELS 3 Zrotation Yrotation Xrotation
		JOINT Spine
		{
			OFFSET 0.005100 8.711998 -0.691000
			CHANNELS 3 Zrotation Yrotation Xrotation
			JOINT Spine1
			{
				OFFSET -0.009200 8.660301 -1.275000
				CHANNELS 3 Zrotation Yrotation Xrotation
				JOINT Spine2
				{
					OFFSET 0.006300 9.852501 -1.857000
					CHANNELS 3 Zrotation Yrotation Xrotation
					JOINT Spine2_Neck
					{
						OFFSET 0.000000 0.000000 0.000000
						CHANNELS 3 Zrotation Yrotation Xrotation
						JOINT Neck
						{
							OFFSET 0.016300 11.420799 -0.263300
							CHANNELS 3 Zrotation Yrotation Xrotation
							End Site #name: Head
							{
								OFFSET -0.019200 9.262405 2.362500
							}
						}
					}
					JOINT Spine2_LeftShoulder
					{
						OFFSET 0.000000 0.000000 0.000000
						CHANNELS 3 Zrotation Yrotation Xrotation
						JOINT LeftShoulder
						{
							OFFSET 5.616900 6.732201 -0.345700
							CHANNELS 3 Zrotation Yrotation Xrotation
							JOINT LeftArm
							{
								OFFSET 10.664888 -0.183372 -2.440700
								CHANNELS 3 Zrotation Yrotation Xrotation
								JOINT LeftForeArm
								{
									OFFSET 27.459126 0.000000 0.000000
									CHANNELS 3 Zrotation Yrotation Xrotation
									End Site #name: LeftHand
									{
										OFFSET 21.306858 0.000000 0.000000
									}
								}
							}
						}
					}
					JOINT Spine2_RightShoulder
					{
						OFFSET 0.000000 0.000000 0.000000
						CHANNELS 3 Zrotation Yrotation Xrotation
						JOINT RightShoulder
						{
							OFFSET -5.580300 6.737503 -0.344400
							CHANNELS 3 Zrotation Yrotation Xrotation
							JOINT RightArm
							{
								OFFSET -10.679335 -0.188484 -2.383900
								CHANNELS 3 Zrotation Yrotation Xrotation
								JOINT RightForeArm
								{
									OFFSET -27.503529 0.000000 0.000000
									CHANNELS 3 Zrotation Yrotation Xrotation
									End Site #name: RightHand
									{
										OFFSET -21.306808 0.000000 0.000000
									}
								}
							}
						}
					}
				}
			}
		}
	}
	JOINT Hips_LeftUpLeg
	{
		OFFSET 0.000000 0.000000 0.000000
		CHANNELS 3 Zrotation Yrotation Xrotation
		JOINT LeftUpLeg
		{
			OFFSET 6.857700 -6.739601 0.312100
			CHANNELS 3 Zrotation Yrotation Xrotation
			JOINT LeftLeg
			{
				OFFSET -0.367590 -34.731552 -4.572400
				CHANNELS 3 Zrotation Yrotation Xrotation
				End Site #name: LeftFoot
				{
					OFFSET 0.367590 -34.656704 -6.067400
				}
			}
		}
	}
	JOINT Hips_RightUpLeg
	{
		OFFSET 0.000000 0.000000 0.000000
		CHANNELS 3 Zrotation Yrotation Xrotation
		JOINT RightUpLeg
		{
			OFFSET -6.876100 -6.733299 0.301000
			CHANNELS 3 Zrotation Yrotation Xrotation
			JOINT RightLeg
			{
				OFFSET 0.347353 -34.795158 -4.515900
				CHANNELS 3 Zrotation Yrotation Xrotation
				End Site #name: RightFoot
				{
					OFFSET -0.347353 -34.589367 -6.070300
				}
			}
		}
	}
}
MOTION
Frames: 14
Frame Time: 0.041667
11.081216 -2.582191 -4.974465 160.625684 -73.803575 -151.498473 0.000000 -0.000000 0.000000 1.558138 4.546035 9.041338 -0.044538 1.297015 3.761818 0.000000 0.000000 0.000000 -0.199521 1.117276 2.846172 3.808363 7.224762 7.049643 -0.104217 1.093092 3.367839 -15.802933 -4.087525 1.362634 -59.483152 -17.792690 29.200799 0.092857 -74.251032 -0.047839 0.090831 1.237770 3.344604 17.467829 18.206112 3.642427 54.060757 6.608684 7.600275 0.071968 44.194159 -0.013086 0.000000 0.000000 -0.000000 11.384751 8.938531 -34.612968 2.523012 7.326095 13.547899 -0.000000 0.000000 0.000000 0.062227 -22.996327 -53.324244 4.426892 -0.204396 54.954861 
11.129760 -2.631762 -6.069634 159.917406 -72.990550 -151.060939 0.000000 -0.000000 0.000000 1.819403 4.411353 9.149200 0.053252 1.223161 3.820780 0.000000 0.000000 0.000000 -0.078029 0.985078 2.978464 4.068738 7.202846 7.112444 -0.009990 0.982355 3.444550 -15.951837 -5.195239 1.586188 -60.621858 -18.265418 29.651944 0.072671 -72.881499 -0.035290 0.196706 1.120057 3.401612 17.693225 18.378839 3.707087 54.036059 6.879435 6.308635 0.069216 44.036959 -0.001609 0.000000 0.000000 -0.000000 12.056208 8.190167 -32.719728 2.358670 7.712871 11.137081 -0.000000 0.000000 0.000000 0.719005 -23.345557 -53.292870 4.463852 -0.500301 55.525699 
11.095083 -2.679987 -7.068086 159.641482 -72.233885 -150.962214 0.000000 -0.000000 0.000000 2.049640 4.225781 9.196609 0.152237 1.142801 3.879961 0.000000 0.000000 0.000000 0.040116 0.874872 3.125674 4.465452 7.086361 7.171063 0.087084 0.852996 3.517290 -15.972459 -6.257171 1.769735 -61.954628 -18.639932 30.366043 0.093884 -71.519910 -0.059179 0.285102 0.990773 3.466500 17.885016 18.433416 3.795291 53.860074 6.995412 5.422560 0.058528 44.526061 0.001366 0.000000 0.000000 -0.000000 12.635604 7.379477 -30.974666 2.350148 8.056117 8.854925 -0.000000 0.000000 0.000000 1.315242 -23.573599 -53.238939 4.417298 -0.824780 55.951705 
11.010807 -2.734605 -7.948464 159.670966 -71.553749 -151.101050 0.000000 -0.000000 0.000000 2.260235 4.016018 9.178456 0.255967 1.052621 3.939954 0.000000 0.000000 0.000000 0.159097 0.775884 3.278987 4.859230 6.934996 7.208071 0.189825 0.712830 3.582859 -15.750437 -7.470867 1.917475 -63.312731 -18.952458 30.812223 0.099550 -70.260688 -0.080370 0.375974 0.851102 3.530581 18.028018 18.363852 3.915840 53.526202 7.038298 4.890169 0.041506 45.665354 -0.003340 0.000000 0.000000 -0.000000 13.091900 6.593501 -29.448190 2.439754 7.879676 6.811317 -0.000000 0.000000 0.000000 1.868845 -23.696229 -53.148691 4.404620 -1.081953 56.249373 
10.910693 -2.804833 -8.688943 159.871259 -70.986538 -151.333567 0.000000 -0.000000 0.000000 2.685163 3.800546 9.074919 0.366420 0.957042 4.008466 0.000000 0.000000 0.000000 0.287013 0.679578 3.457024 5.208210 6.826863 7.203295 0.323421 0.603670 3.660813 -15.499374 -9.021368 2.122164 -64.312451 -19.295365 30.056169 0.096372 -69.096996 -0.093250 0.476521 0.716250 3.631004 18.118039 18.190505 4.054887 53.046009 7.088201 4.553014 0.018701 47.304402 -0.007928 0.000000 0.000000 -0.000000 13.392639 6.225949 -28.243804 2.509120 6.552752 5.117935 0.000000 0.000000 0.000000 2.383848 -23.735186 -53.062406 4.569910 -1.172888 56.484681 
10.804809 -2.899056 -9.252613 160.341904 -70.521599 -151.775729 0.000000 -0.000000 0.000000 3.080961 3.553764 8.987207 0.478866 0.858179 4.079861 0.000000 0.000000 0.000000 0.418392 0.592168 3.648830 5.495626 6.746197 7.179232 0.459755 0.492385 3.736017 -15.435978 -10.810045 2.418442 -64.974558 -19.591825 29.069895 0.097660 -68.080232 -0.110003 0.595676 0.581146 3.778911 18.141738 17.959274 4.204363 52.455156 7.199330 4.165593 -0.010175 49.218931 -0.018874 0.000000 0.000000 -0.000000 13.523927 6.280801 -27.515523 2.438381 3.994494 4.219535 0.000000 0.000000 0.000000 2.854845 -23.699544 -53.031959 4.914057 -1.067296 56.725385 
10.702526 -3.024977 -9.603015 161.091389 -70.120687 -152.419685 0.000000 -0.000000 0.000000 3.374625 3.278285 8.857517 0.575240 0.759400 4.138095 0.000000 0.000000 0.000000 0.545612 0.509785 3.823669 5.685781 6.666365 7.156194 0.573819 0.397901 3.793234 -15.299176 -12.386105 2.578581 -65.339943 -19.845878 28.065810 0.089856 -67.332435 -0.096692 0.697768 0.512777 3.901282 18.087590 17.714149 4.349613 51.891758 7.304010 3.492972 -0.040632 51.075161 -0.035970 0.000000 0.000000 0.000000 13.522442 6.582390 -27.333449 2.554458 1.277665 4.256006 0.000000 0.000000 0.000000 3.251667 -23.584969 -53.122493 5.360922 -0.794120 57.021162 
10.613719 -3.186927 -9.704232 162.062504 -69.804457 -153.221763 0.000000 -0.000000 0.000000 3.514249 2.999432 8.709719 0.654947 0.668151 4.189066 0.000000 0.000000 0.000000 0.656445 0.447609 3.952481 5.792359 6.575990 7.108209 0.666241 0.344104 3.891529 -15.123529 -13.618859 2.623445 -65.653110 -20.257676 27.346404 0.061674 -66.908238 -0.043745 0.781316 0.454093 3.994482 17.933258 17.555153 4.406825 51.475985 7.398187 2.509532 -0.068145 52.506651 -0.049632 0.000000 0.000000 0.000000 13.437901 7.003808 -27.859571 2.643422 -1.344662 5.475018 0.000000 -0.000000 0.000000 3.561793 -23.399677 -53.404149 5.806565 -0.399886 57.397833 
10.548468 -3.389016 -9.519940 163.204311 -69.564405 -154.136287 0.000000 -0.000000 0.000000 3.498924 2.753198 8.584092 0.724119 0.583817 4.242266 0.000000 0.000000 0.000000 0.739334 0.398869 4.018415 5.844691 6.485851 7.063869 0.731029 0.298357 3.966358 -14.904184 -14.316770 2.704404 -65.924808 -20.859846 26.903493 0.008207 -66.785161 0.038226 0.840395 0.403690 4.057315 17.682338 17.505772 4.389683 51.259466 7.522039 1.198500 -0.102918 53.392690 -0.069644 0.000000 0.000000 0.000000 13.437657 7.535289 -29.204368 2.444086 -3.466875 8.083908 0.000000 -0.000000 0.000000 3.785892 -23.158711 -53.880721 6.178807 0.010821 57.847944 
10.482546 -3.609686 -9.063190 164.594425 -69.420734 -155.203640 0.000000 -0.000000 0.000000 3.378230 2.530169 8.515508 0.767661 0.515521 4.285170 0.000000 0.000000 0.000000 0.789307 0.357720 4.042611 5.878302 6.427483 7.050102 0.770499 0.260460 4.030414 -14.684960 -14.482971 2.813262 -66.201976 -21.637183 26.654362 -0.069133 -66.643541 0.137807 0.871609 0.363804 4.098510 17.409020 17.482912 4.373328 51.155893 7.964020 -0.151690 -0.129306 53.336763 -0.085792 0.000000 0.000000 0.000000 13.426668 8.237486 -31.349375 1.921610 -5.061548 12.023040 0.000000 -0.000000 0.000000 3.920031 -22.866858 -54.512673 6.487272 0.435045 58.312743 
10.391127 -3.826946 -8.348075 166.164937 -69.395251 -156.377540 0.000000 -0.000000 0.000000 3.168797 2.349928 8.500675 0.782679 0.468343 4.311707 0.000000 0.000000 0.000000 0.811581 0.329231 4.048911 5.901263 6.399662 7.039218 0.783632 0.231823 4.078004 -14.526576 -14.230382 2.921612 -66.773755 -22.772733 26.651480 -0.105229 -66.450002 0.181529 0.876711 0.336666 4.120006 17.153886 17.491537 4.355988 51.241911 8.696513 -1.250537 -0.143845 52.539347 -0.088475 0.000000 0.000000 0.000000 13.326767 8.976693 -34.098255 1.079223 -6.247466 16.919276 -0.000000 -0.000000 0.000000 3.940830 -22.563285 -55.217585 6.783904 0.925582 58.700895 
10.249816 -4.016617 -7.389362 167.856856 -69.507508 -157.628221 0.000000 -0.000000 0.000000 2.899909 2.234819 8.509155 0.773216 0.445597 4.323702 0.000000 0.000000 0.000000 0.809079 0.315106 4.040891 5.939592 6.410044 7.050414 0.774715 0.216086 4.107367 -14.442773 -13.714568 2.846558 -67.453439 -23.966657 26.734458 -0.105150 -66.291541 0.191493 0.861142 0.322545 4.123299 16.940992 17.525881 4.334368 51.479088 9.630883 -2.320647 -0.150700 51.151710 -0.085911 0.000000 0.000000 0.000000 13.236215 9.682647 -37.259364 0.074724 -6.626639 22.305100 -0.000000 -0.000000 0.000000 3.810207 -22.277190 -55.892539 7.117650 1.511793 58.918884 
10.034913 -4.155105 -6.200546 169.711374 -69.740603 -159.003275 0.000000 -0.000000 0.000000 2.593862 2.189053 8.525232 0.742291 0.450140 4.320831 0.000000 0.000000 0.000000 0.785436 0.313608 4.028325 5.985976 6.431754 7.095680 0.747855 0.216714 4.126131 -14.432005 -12.930639 2.738779 -68.113670 -25.112758 26.833228 -0.095421 -66.193524 0.188214 0.830591 0.322000 4.118033 16.816681 17.560101 4.308688 51.917628 10.691153 -3.260605 -0.150131 49.365231 -0.078747 0.000000 0.000000 0.000000 13.265837 10.616432 -40.393109 -1.114716 -6.206271 27.481182 -0.000000 -0.000000 0.000000 3.501394 -22.017107 -56.465211 7.349700 2.058610 58.856211 
9.768540 -4.250248 -4.837224 171.559920 -70.063575 -160.337336 0.000000 -0.000000 0.000000 2.298324 2.185425 8.616124 0.697655 0.483608 4.313901 0.000000 0.000000 0.000000 0.736968 0.332355 4.021857 6.051590 6.493658 7.176158 0.710284 0.228097 4.141213 -14.439103 -11.986979 2.600592 -68.726200 -26.097399 26.929199 -0.069319 -66.150190 0.163068 0.790736 0.335793 4.107201 16.795968 17.582982 4.279140 52.556003 11.842386 -4.057144 -0.140610 46.845907 -0.067834 0.000000 0.000000 0.000000 13.337645 11.492706 -43.183120 -2.451705 -5.293298 31.561002 -0.000000 -0.000000 0.000000 3.035694 -21.736878 -56.900110 7.444048 2.531222 58.410822 
